<?xml version="1.0" standalone="no"?>
<!DOCTYPE svg PUBLIC "-//W3C//DTD SVG 20010904//EN"
 "http://www.w3.org/TR/2001/REC-SVG-20010904/DTD/svg10.dtd">
<svg version="1.0" xmlns="http://www.w3.org/2000/svg"
 width="820.000000pt" height="860.000000pt" viewBox="0 0 820.000000 860.000000"
 preserveAspectRatio="xMidYMid meet">

<g transform="translate(0.000000,860.000000) scale(0.100000,-0.100000)"
fill="#000000" stroke="none">
<path d="M3935 8194 c-418 -24 -707 -76 -1060 -190 -193 -63 -354 -127 -515
-207 -59 -29 -260 -137 -302 -162 -9 -5 -43 -25 -75 -44 -72 -43 -282 -193
-383 -274 -165 -133 -349 -307 -475 -451 -33 -38 -65 -73 -71 -80 -6 -6 -41
-49 -78 -96 -37 -47 -73 -92 -79 -100 -68 -85 -236 -346 -299 -465 -272 -509
-416 -976 -479 -1550 -15 -141 -16 -585 0 -740 21 -217 58 -424 117 -650 32
-125 94 -328 113 -370 5 -11 33 -76 62 -145 233 -557 561 -1022 1009 -1430
274 -249 564 -446 905 -615 583 -289 1120 -415 1770 -415 311 0 502 18 795 73
169 32 485 126 669 198 124 49 149 60 311 141 278 138 548 312 770 497 30 25
60 51 67 56 49 40 259 242 307 295 183 201 285 332 419 533 120 182 137 211
247 432 214 426 342 874 395 1372 17 162 20 591 5 744 -54 545 -181 984 -427
1474 -61 122 -124 230 -207 355 -62 95 -162 237 -176 250 -3 3 -17 21 -32 42
-15 20 -33 42 -40 50 -7 7 -42 47 -77 88 -268 317 -645 631 -1016 845 -262
152 -609 303 -860 375 -264 75 -500 122 -765 149 -105 11 -451 20 -545 15z
m400 -274 l0 -45 -62 3 -63 4 0 -144 c0 -79 -3 -167 -7 -196 l-6 -53 -51 3
-51 3 4 193 3 192 -66 0 -66 0 0 45 0 45 183 -2 182 -3 0 -45z m314 10 c74
-11 136 -21 138 -23 2 -3 1 -23 -3 -47 -7 -42 -7 -42 -43 -36 -20 3 -62 9 -93
13 -56 6 -58 5 -58 -18 0 -13 -3 -34 -6 -45 -5 -20 0 -22 81 -34 l87 -12 -5
-40 c-3 -22 -8 -42 -11 -45 -3 -3 -40 0 -82 6 -42 7 -80 9 -84 4 -5 -4 -10
-28 -12 -52 -3 -44 -2 -45 32 -52 19 -4 61 -10 93 -14 l57 -6 0 -40 c0 -25 -5
-42 -14 -45 -14 -5 -283 30 -291 38 -4 4 53 430 61 456 4 15 -6 16 153 -8z
m-1024 -31 c4 -22 5 -42 3 -45 -3 -2 -41 -9 -86 -16 l-82 -11 0 -31 c0 -17 3
-42 7 -54 5 -21 10 -23 37 -17 17 3 54 9 83 12 l52 6 7 -37 c3 -21 3 -41 -2
-45 -5 -5 -40 -13 -78 -19 -37 -6 -71 -13 -74 -16 -3 -3 2 -46 10 -95 l14 -90
-50 -9 c-28 -4 -53 -7 -55 -5 -7 5 -80 457 -75 463 6 5 225 47 261 49 17 1 22
-6 28 -40z m1621 -100 c29 -11 56 -25 60 -30 6 -10 -33 -79 -45 -79 -3 0 -18
8 -31 17 -18 13 -45 18 -92 18 -61 0 -68 -2 -96 -32 -32 -33 -52 -86 -52 -138
0 -70 78 -134 163 -135 35 0 37 -2 37 -32 0 -55 -11 -62 -76 -54 -123 14 -214
84 -233 179 -18 84 10 186 65 240 77 77 176 92 300 46z m-2138 -18 c20 -10 47
-30 59 -43 56 -60 88 -198 63 -273 -19 -57 -88 -121 -151 -139 -69 -21 -105
-20 -157 4 -85 39 -142 132 -142 236 0 79 14 120 59 167 71 76 178 95 269 48z
m2426 -91 c25 -12 46 -23 46 -26 0 -3 -16 -40 -35 -81 -20 -42 -32 -80 -28
-83 18 -16 142 -68 148 -62 3 3 21 39 40 79 19 40 39 73 45 73 23 0 91 -42 87
-53 -22 -51 -190 -413 -193 -416 -7 -7 -94 38 -94 48 0 5 16 44 35 85 19 42
35 80 35 84 0 8 -150 76 -154 70 -9 -13 -66 -141 -66 -148 0 -20 -23 -21 -65
-3 -25 10 -45 21 -45 25 0 4 34 83 76 175 42 92 85 187 95 211 10 23 20 42 22
42 3 0 25 -9 51 -20z m-3152 -162 c33 -52 31 -55 -47 -98 -41 -23 -75 -46 -75
-51 0 -19 31 -69 42 -69 6 0 39 16 74 35 34 19 66 35 71 35 5 0 17 -16 27 -37
19 -41 24 -35 -66 -85 -32 -18 -58 -37 -58 -43 0 -6 11 -27 25 -48 29 -42 23
-43 135 23 28 17 53 30 55 30 4 0 45 -65 45 -73 0 -8 -245 -147 -258 -147 -6
0 -28 30 -48 68 -21 37 -70 124 -111 194 -40 70 -74 132 -75 137 -3 9 224 149
243 150 4 1 13 -9 21 -21z m3702 -120 l48 -31 -7 -91 c-3 -50 -11 -126 -16
-170 -11 -84 -8 -102 11 -64 28 54 146 228 155 228 6 0 25 -13 43 -28 l33 -27
-126 -190 c-69 -105 -132 -191 -138 -193 -7 -1 -32 11 -54 27 -37 27 -41 34
-38 63 3 18 9 89 15 158 6 69 13 139 15 155 6 36 13 44 -98 -126 -43 -65 -81
-119 -85 -119 -4 0 -24 12 -45 26 -36 24 -38 27 -23 47 8 12 66 99 128 194 62
95 118 172 124 173 6 0 32 -14 58 -32z m-1594 -103 c577 -74 1119 -304 1570
-666 110 -88 345 -316 422 -409 172 -207 292 -389 412 -625 159 -312 261 -647
312 -1030 21 -159 24 -538 6 -700 -45 -386 -148 -738 -308 -1057 -160 -321
-342 -576 -584 -819 -330 -331 -695 -567 -1127 -728 -375 -140 -682 -194
-1098 -194 -256 0 -390 12 -617 58 -850 169 -1604 700 -2058 1450 -382 634
-526 1376 -409 2115 180 1136 986 2090 2083 2464 218 75 493 133 736 156 135
12 512 4 660 -15z m-2460 -55 c0 -3 -22 -22 -50 -43 l-49 -37 114 -152 115
-153 -27 -23 c-59 -49 -52 -53 -168 101 -60 78 -112 146 -116 151 -4 5 -31 -8
-59 -29 l-52 -38 -24 29 c-13 16 -23 34 -21 41 1 7 65 59 142 117 l140 106 28
-32 c15 -18 27 -35 27 -38z m4578 -246 c118 -49 174 -187 122 -301 -25 -56
-99 -127 -155 -148 -126 -49 -272 31 -305 167 -24 97 47 225 153 277 51 24
133 27 185 5z m-4930 -127 c128 -130 158 -182 147 -252 -19 -128 -164 -212
-271 -157 -39 20 -264 232 -264 249 0 5 16 24 35 43 l34 33 119 -115 c130
-126 162 -143 208 -113 36 23 47 59 30 98 -8 18 -62 79 -120 137 -58 57 -106
109 -106 114 0 11 60 76 70 76 3 0 56 -51 118 -113z m5342 -297 c0 -4 -60 -55
-134 -114 -74 -59 -140 -114 -146 -121 -10 -12 -3 -25 32 -67 76 -92 73 -84
41 -112 -15 -14 -33 -26 -40 -26 -6 0 -32 27 -58 59 -25 33 -51 66 -58 73 -34
36 -67 89 -62 99 4 5 86 73 183 151 l177 140 32 -38 c18 -20 33 -40 33 -44z
m-5796 -23 l29 -24 -36 -48 c-20 -26 -34 -51 -32 -56 3 -4 71 -56 150 -115 80
-58 145 -109 145 -112 0 -12 -53 -82 -62 -82 -5 0 -76 49 -156 110 -81 60
-149 110 -152 109 -3 0 -21 -22 -40 -49 -36 -51 -39 -51 -88 -12 l-23 18 106
142 c58 78 112 142 118 142 7 0 25 -11 41 -23z m6043 -341 c134 -89 143 -275
18 -370 -119 -91 -261 -88 -340 6 -92 109 -85 234 19 325 63 55 114 73 196 69
51 -2 75 -9 107 -30z m-6207 -149 c177 -105 230 -138 230 -144 0 -11 -46 -83
-54 -83 -5 0 -79 41 -165 92 -86 50 -175 102 -198 116 -24 13 -43 26 -43 29 0
2 12 24 26 49 30 51 8 57 204 -59z m-249 -142 l29 -16 -25 -49 c-14 -27 -25
-54 -25 -60 0 -6 21 -20 48 -32 26 -11 102 -47 169 -79 l123 -57 -17 -46 c-18
-47 -35 -56 -71 -36 -57 32 -297 138 -304 134 -4 -3 -18 -27 -29 -55 -23 -53
-34 -56 -86 -23 l-22 14 45 98 c26 53 59 125 75 160 30 66 41 72 90 47z m6674
-224 c79 -35 136 -114 162 -221 11 -50 11 -56 -5 -68 -9 -7 -30 -12 -47 -10
-27 3 -31 7 -35 43 -8 57 -41 116 -80 143 -74 50 -196 7 -229 -81 -13 -35 -4
-101 18 -128 15 -19 18 -19 54 -4 37 15 38 17 32 53 -6 36 -5 38 30 51 20 7
38 11 40 9 6 -5 65 -161 62 -163 -10 -8 -218 -85 -229 -85 -16 0 -60 69 -87
138 -23 58 -28 153 -10 199 20 54 90 113 159 134 45 13 124 9 165 -10z m-6882
-264 l29 -22 -26 -52 c-30 -58 -32 -85 -11 -103 24 -20 60 -3 100 46 67 81
129 103 198 69 69 -34 94 -120 63 -216 -17 -52 -55 -119 -68 -119 -4 0 -23 10
-43 21 -36 21 -36 21 -18 48 28 43 53 99 53 120 0 11 -11 28 -24 36 -31 21
-49 12 -103 -53 -67 -79 -127 -99 -192 -64 -52 28 -73 74 -68 148 5 63 48 164
71 164 6 0 24 -10 39 -23z m7137 -254 c10 -46 10 -57 -1 -64 -8 -4 -47 -32
-86 -62 l-73 -54 105 -18 c99 -17 106 -20 111 -44 3 -14 10 -38 14 -53 5 -15
5 -30 1 -33 -5 -2 -73 15 -152 38 l-143 43 -96 -21 c-106 -24 -105 -25 -116
43 -7 46 -16 40 125 72 46 11 69 26 165 111 61 54 116 98 123 98 6 1 17 -24
23 -56z m-7201 -209 c171 -27 336 -56 339 -58 4 -4 -10 -93 -17 -104 -7 -11
-265 -105 -320 -117 -45 -10 -25 -20 54 -29 78 -9 227 -35 232 -40 3 -2 1 -25
-3 -51 -6 -46 -7 -47 -38 -41 -17 3 -123 19 -234 37 l-204 32 7 56 c4 31 12
61 18 68 14 14 152 67 257 98 l75 22 -40 6 c-22 4 -91 14 -152 23 l-113 17 0
33 c0 43 9 64 27 64 9 0 59 -7 112 -16z m7103 -510 c149 -5 211 -10 218 -20 6
-7 10 -40 8 -74 l-3 -62 -75 -24 c-41 -13 -113 -33 -159 -46 l-83 -22 127 -33
c69 -18 142 -40 161 -48 l34 -14 0 -69 0 -69 -177 -13 c-98 -6 -205 -13 -238
-13 l-60 -2 -3 44 c-2 24 0 47 5 52 4 4 83 11 176 15 92 4 166 9 163 11 -2 2
-77 25 -167 52 l-164 47 -3 45 -3 45 148 42 c81 23 155 43 163 43 8 1 4 5 -10
9 -14 4 -89 8 -167 9 l-143 1 0 56 c0 53 1 56 23 51 12 -3 115 -9 229 -13z
m-6839 -71 c4 -2 7 -27 7 -55 l0 -50 -232 7 c-128 4 -236 9 -240 12 -5 2 -8
27 -8 55 l0 50 233 -7 c127 -4 235 -9 240 -12z m11 -464 c16 -82 19 -79 -229
-248 -36 -25 -63 -46 -61 -48 2 -2 44 3 92 11 49 9 121 19 160 22 l71 7 7 -43
c4 -24 3 -46 -1 -50 -4 -4 -69 -15 -143 -25 -74 -9 -177 -23 -227 -30 -104
-13 -96 -18 -108 67 l-6 47 98 73 c54 40 117 86 141 102 23 16 41 30 40 31 -2
1 -67 -7 -146 -18 -78 -11 -145 -17 -148 -14 -4 3 -9 26 -11 50 l-5 44 98 13
c55 6 142 18 194 25 52 7 114 13 136 14 39 1 42 -1 48 -30z m6796 -180 c175
-87 220 -114 216 -127 -3 -9 -8 -38 -12 -65 -3 -26 -11 -50 -18 -54 -17 -12
-470 -71 -479 -63 -4 4 -4 29 0 56 l8 49 62 9 c69 10 70 12 79 92 l7 54 -57
25 c-44 19 -56 29 -52 43 3 9 8 34 12 55 3 20 8 37 10 37 2 0 103 -50 224
-111z m-6713 -330 c7 -24 11 -49 9 -56 -3 -7 -24 -24 -48 -39 -24 -15 -44 -28
-46 -29 -2 -2 5 -32 15 -69 l17 -66 67 0 67 0 6 -36 c4 -19 10 -42 13 -50 4
-12 -32 -14 -244 -14 l-250 0 -18 66 c-15 56 -16 68 -4 79 27 27 384 263 394
261 5 -1 15 -22 22 -47z m6604 -160 c118 -40 216 -74 218 -76 3 -2 -1 -31 -8
-65 -15 -73 -63 -183 -94 -216 -61 -65 -165 -80 -260 -38 -124 55 -170 160
-133 304 14 56 54 162 61 162 1 0 99 -32 216 -71z m-6436 -336 c9 -20 14 -43
13 -51 -2 -7 -30 -24 -63 -38 -86 -36 -208 -87 -293 -123 l-73 -30 -20 45
c-10 25 -19 48 -19 50 0 8 405 183 427 184 7 0 20 -17 28 -37z m6443 -317 c5
-25 -76 -178 -113 -213 -42 -40 -89 -50 -138 -29 -39 16 -77 67 -77 102 0 19
-4 21 -43 17 -48 -6 -197 24 -197 38 0 20 41 89 53 89 6 -1 41 -7 77 -15 36
-8 71 -14 78 -15 15 0 62 44 62 59 0 5 -35 28 -77 51 -43 23 -79 43 -81 45 -4
4 26 64 41 83 7 9 56 -12 211 -92 111 -58 202 -111 204 -120z m-6371 50 c34
-16 65 -41 93 -77 48 -61 104 -166 97 -183 -5 -12 -377 -226 -394 -226 -15 0
-77 95 -110 167 -67 146 -5 278 153 327 69 21 102 19 161 -8z m5911 -404 c78
-104 142 -195 142 -202 0 -7 -17 -34 -37 -59 -20 -25 -38 -48 -39 -50 -6 -7
-464 153 -464 162 0 4 12 25 27 45 15 20 28 39 30 41 1 2 29 -6 62 -17 l60
-20 36 48 c19 26 35 53 35 60 0 6 -15 31 -34 54 l-35 42 27 42 c15 23 32 42
37 42 6 0 74 -85 153 -188z m-5595 -11 c15 -22 27 -44 27 -50 0 -11 -85 -226
-100 -252 -22 -41 -40 -91 -28 -82 7 5 63 51 125 101 61 51 116 92 121 92 11
0 66 -69 60 -75 -18 -18 -363 -295 -368 -295 -11 1 -70 90 -70 105 0 19 98
265 111 280 5 5 9 15 9 22 0 8 -44 -23 -97 -69 -54 -45 -106 -89 -116 -97 -17
-14 -21 -13 -48 19 -15 19 -28 40 -28 45 0 6 30 33 67 62 37 29 116 93 177
143 60 49 114 90 120 90 5 0 22 -18 38 -39z m5167 -253 c27 -44 25 -53 -12
-69 -39 -16 -88 -66 -88 -90 0 -53 36 -63 112 -29 109 48 185 32 220 -47 22
-50 18 -86 -14 -144 -21 -38 -105 -109 -129 -109 -13 0 -49 51 -49 70 0 5 9
12 21 15 31 10 79 65 79 90 0 45 -25 51 -94 22 -95 -39 -127 -42 -172 -19 -84
43 -101 138 -41 225 30 43 117 116 140 117 4 0 16 -15 27 -32z m-4820 -143
l34 -35 -25 -27 c-81 -92 -295 -303 -307 -303 -16 0 -72 50 -72 65 0 10 320
335 330 335 4 0 21 -16 40 -35z m169 -410 c50 -25 49 -95 -1 -121 -80 -41
-148 78 -69 121 33 18 36 18 70 0z m4344 -13 c21 -19 22 -75 1 -96 -39 -39
-107 -23 -120 28 -8 34 16 79 46 86 29 8 48 3 73 -18z m-3734 -22 c38 -26 77
-107 92 -190 6 -36 13 -70 15 -77 3 -12 26 -23 126 -64 l47 -18 7 52 c5 38 15
59 36 81 26 26 34 28 79 24 41 -4 57 -12 88 -42 40 -39 80 -111 102 -184 11
-39 16 -43 63 -57 47 -14 54 -14 83 2 30 16 34 16 67 0 62 -29 79 -89 58 -200
-9 -45 -8 -49 13 -57 12 -4 37 -10 55 -12 37 -3 40 3 54 94 l7 47 -36 7 c-25
4 -40 14 -47 30 -15 32 -9 35 45 25 52 -9 56 -4 30 35 -9 14 -17 46 -17 70 -1
55 27 84 79 84 36 0 95 -41 95 -66 0 -18 -4 -18 -41 1 -30 16 -63 8 -81 -19
-12 -17 -9 -74 3 -81 6 -4 8 -13 5 -20 -2 -7 2 -16 10 -19 13 -5 169 -18 362
-31 l94 -6 -8 33 c-5 18 -9 50 -8 72 0 80 94 121 181 79 43 -20 134 -102 152
-137 12 -21 22 -26 54 -26 38 0 77 -21 77 -42 0 -4 -12 -8 -26 -8 l-27 0 7
-137 c4 -76 9 -157 13 -181 l5 -43 -35 17 c-38 18 -47 43 -47 142 l0 52 -61 0
c-81 0 -99 -11 -99 -59 0 -31 8 -48 41 -85 31 -35 39 -50 30 -59 -15 -15 -94
62 -121 118 -26 54 -25 88 2 120 21 23 33 26 111 32 l87 6 0 34 0 35 -132 -7
c-73 -4 -135 -9 -137 -11 -2 -2 -6 -80 -9 -174 -3 -93 -7 -170 -9 -170 -3 0
-18 8 -34 17 l-29 17 7 158 6 158 -40 0 c-40 0 -41 0 -46 -42 -4 -24 -9 -95
-13 -158 -10 -165 -8 -161 -48 -135 -21 14 -26 25 -26 57 0 35 -2 39 -17 32
-37 -16 -100 -16 -131 0 -42 22 -85 96 -76 130 11 46 51 69 112 64 43 -4 59
-11 87 -38 l33 -32 7 45 c13 83 15 81 -125 92 -96 9 -127 8 -136 -1 -5 -7 -23
-85 -39 -173 -15 -89 -31 -161 -35 -161 -3 0 -17 11 -29 24 -20 21 -22 31 -16
74 4 27 3 52 -2 55 -4 2 -29 8 -55 11 -39 6 -48 4 -48 -7 0 -8 -8 -25 -18 -37
l-18 -22 -31 26 c-59 50 -69 117 -18 126 23 4 31 12 36 36 5 26 2 34 -21 49
-14 9 -36 33 -48 51 -12 19 -27 34 -32 34 -5 0 -15 -21 -21 -46 -7 -25 -18
-48 -26 -51 -8 -3 -49 5 -90 18 -81 25 -105 21 -111 -20 -7 -49 68 -89 95 -51
28 40 93 16 93 -35 0 -13 -11 -32 -25 -43 l-25 -20 26 -46 c14 -26 23 -53 20
-61 -10 -28 -33 -15 -45 26 -10 32 -16 39 -29 33 -60 -25 -89 -27 -128 -8 -51
25 -86 77 -74 109 7 19 5 25 -8 29 -21 7 -52 56 -52 83 0 11 11 30 24 42 l24
22 22 -31 c21 -30 21 -32 4 -51 -16 -17 -16 -21 -3 -35 29 -29 46 -8 41 50 -4
47 -2 55 19 70 29 20 74 20 129 1 47 -16 55 -15 63 14 4 17 -5 23 -57 40 -140
45 -237 72 -245 67 -4 -3 -34 -73 -66 -156 -32 -82 -62 -150 -68 -150 -13 0
-36 31 -37 50 0 9 22 74 50 145 27 72 50 135 50 140 0 6 -14 16 -31 22 l-30
12 -75 -155 c-41 -85 -79 -154 -83 -154 -5 0 -17 12 -26 27 -17 25 -17 28 9
80 14 29 26 55 26 56 0 1 -15 11 -34 21 -19 10 -42 33 -52 52 -21 38 -22 39
-48 19 -11 -8 -28 -15 -38 -15 -10 0 -18 -4 -18 -10 0 -15 41 -124 51 -134 15
-16 10 -33 -11 -39 -17 -4 -23 5 -44 72 -13 42 -30 105 -36 140 -10 53 -9 66
5 87 20 31 43 31 55 -1 14 -37 46 -32 69 12 21 42 13 57 -48 89 l-58 30 -88
-148 c-48 -81 -91 -148 -95 -148 -5 0 -14 16 -20 35 -11 33 -9 39 66 166 l77
131 -27 24 c-27 26 -35 64 -13 64 6 0 26 -9 42 -20 17 -11 33 -20 36 -20 4 0
12 19 18 43 14 53 20 62 56 82 37 19 84 14 124 -15z m3276 -122 c30 -14 32
-24 5 -33 -11 -3 -20 -10 -20 -15 0 -4 32 -64 71 -132 39 -67 77 -135 85 -150
l15 -28 -39 0 -39 0 -75 132 c-42 73 -79 133 -84 135 -5 1 -19 -6 -32 -15
l-24 -18 71 -153 c39 -84 71 -155 71 -157 0 -2 -16 -4 -36 -4 -34 0 -36 2 -70
75 -19 41 -38 75 -43 75 -5 0 -28 -9 -52 -19 -43 -20 -43 -20 -18 -30 29 -11
79 -65 79 -86 0 -47 -44 -85 -98 -85 -60 0 -202 95 -202 134 0 24 13 20 45
-14 33 -35 83 -60 118 -60 27 0 57 23 57 44 0 22 -51 65 -91 78 -22 6 -39 14
-39 18 0 4 36 24 80 44 44 21 82 42 85 47 3 4 -1 22 -10 38 l-15 30 -118 -55
c-64 -31 -132 -62 -149 -70 -18 -8 -33 -19 -33 -26 0 -6 23 -78 50 -159 28
-81 50 -152 50 -157 0 -12 -57 -2 -68 12 -5 6 -15 28 -21 49 -7 20 -13 37 -14
37 -1 0 -24 -9 -52 -19 -48 -18 -50 -21 -50 -58 0 -32 -3 -38 -23 -41 -34 -5
-79 16 -108 51 -23 28 -24 31 -8 48 9 11 23 19 30 19 9 0 7 18 -10 68 -15 43
-28 66 -37 65 -8 -2 -54 -11 -104 -21 -98 -20 -97 -18 -80 -90 5 -22 6 -22 37
-6 28 15 34 15 64 1 68 -33 110 -126 85 -189 -12 -32 -18 -34 -48 -10 -21 16
-22 19 -8 58 17 51 10 82 -21 90 -32 8 -49 0 -69 -30 -15 -23 -15 -32 -1 -107
9 -46 14 -84 12 -86 -1 -2 -19 4 -39 12 -31 13 -37 20 -37 45 0 38 -12 44 -47
23 -19 -10 -38 -14 -57 -9 -39 10 -95 66 -102 103 -13 66 83 110 145 66 l24
-16 -8 49 c-4 27 -9 52 -11 55 -2 4 -49 -3 -104 -14 l-100 -21 -22 21 -21 22
24 5 c13 4 103 22 199 42 158 32 432 113 454 134 4 4 -1 11 -12 14 -34 11 -82
73 -82 107 0 46 39 79 92 79 39 -1 78 -17 78 -34 0 -3 -17 -6 -37 -6 -20 0
-45 -7 -55 -17 -24 -21 -23 -64 2 -89 45 -45 48 -46 88 -33 65 21 307 137 404
194 51 30 94 54 95 55 1 0 14 -5 28 -12z"/>
<path d="M2919 7681 c-24 -25 -29 -38 -29 -79 0 -133 87 -228 173 -187 19 9
40 28 48 42 33 61 -1 191 -61 233 -42 30 -95 26 -131 -9z"/>
<path d="M4062 6918 c-5 -7 -15 -44 -21 -83 -30 -175 -128 -377 -331 -680
-260 -389 -381 -690 -434 -1073 -37 -264 -2 -565 95 -829 17 -47 29 -86 27
-88 -2 -2 -96 -13 -208 -25 -658 -67 -1139 -190 -1277 -327 -58 -57 -61 -87
-25 -195 140 -409 447 -754 887 -993 617 -337 1425 -415 2139 -208 555 161
1018 494 1260 905 68 116 93 171 136 301 l33 97 -18 41 c-24 51 -59 81 -157
130 -226 114 -630 198 -1246 260 -105 10 -123 15 -118 28 2 9 18 54 34 101
172 486 125 998 -140 1525 -60 120 -69 135 -176 300 -147 225 -196 307 -250
415 -58 117 -106 257 -117 340 -4 30 -13 58 -19 62 -18 12 -63 9 -74 -4z m67
-283 c53 -148 148 -317 348 -618 153 -231 282 -530 340 -792 30 -137 43 -451
24 -586 -44 -303 -163 -579 -390 -902 -42 -60 -85 -122 -96 -138 -23 -34 -47
-36 -120 -10 l-50 18 -3 266 -2 266 48 48 c29 29 58 71 72 106 23 54 25 57 59
57 46 0 120 35 196 93 112 85 114 93 34 145 -48 32 -49 33 -33 57 9 13 31 29
49 35 66 22 52 71 -27 95 -28 8 -67 15 -85 15 -18 0 -33 2 -33 3 0 2 9 39 20
82 25 100 25 172 -2 315 -16 87 -22 162 -24 307 -1 106 -5 197 -9 203 -11 18
-44 10 -78 -20 -19 -16 -38 -30 -41 -30 -4 0 -22 34 -41 77 l-35 76 -46 -61
c-43 -58 -64 -75 -64 -53 0 15 -30 41 -46 41 -8 0 -22 -9 -31 -20 -10 -11 -20
-20 -23 -20 -4 0 -24 25 -46 55 -21 30 -41 55 -44 55 -3 0 -17 -31 -33 -68
-42 -103 -39 -101 -86 -59 -42 38 -78 48 -87 24 -2 -7 -6 -98 -7 -202 -3 -142
-9 -223 -26 -320 -25 -140 -23 -231 4 -322 8 -26 15 -51 15 -54 0 -3 -27 -9
-60 -12 -65 -7 -114 -27 -123 -50 -8 -20 18 -54 47 -61 25 -6 66 -58 49 -63
-5 -2 -29 -17 -51 -34 -66 -49 -64 -53 99 -172 48 -35 110 -57 159 -57 32 0
39 -4 44 -26 10 -37 52 -103 97 -150 l39 -40 -2 -263 -3 -263 -75 -24 c-59
-18 -77 -21 -87 -11 -22 23 -179 252 -224 327 -130 214 -209 406 -260 625 -27
117 -37 410 -19 552 39 316 171 647 392 983 193 294 268 429 319 573 13 37 26
67 29 67 3 0 16 -29 29 -65z m891 -2580 c538 -53 1015 -165 1176 -276 47 -32
58 -52 44 -79 -31 -58 -325 -140 -680 -190 -292 -42 -614 -51 -826 -25 -126
15 -301 48 -311 58 -3 3 8 23 25 44 58 74 199 293 253 392 l54 101 55 -5 c30
-3 125 -12 210 -20z m-1539 -47 c52 -104 124 -219 253 -401 33 -47 44 -68 34
-72 -30 -10 -171 -35 -288 -51 -150 -20 -435 -23 -600 -5 -459 48 -825 132
-912 209 -27 23 -22 48 15 75 117 89 377 168 754 231 230 39 522 72 645 75
l68 1 31 -62z"/>
<path d="M6458 6887 c-23 -18 -53 -51 -66 -72 -45 -79 -6 -175 71 -175 65 0
157 77 177 149 31 114 -81 175 -182 98z"/>
<path d="M7081 6118 c-54 -27 -101 -89 -101 -135 0 -52 45 -93 102 -93 83 1
177 68 193 139 7 34 -15 85 -44 101 -31 16 -103 11 -150 -12z"/>
<path d="M7547 3618 c-3 -24 -5 -44 -3 -45 5 -5 166 10 166 16 0 6 -139 71
-151 71 -4 0 -9 -19 -12 -42z"/>
<path d="M650 3200 l-75 -50 80 0 c100 0 109 5 94 51 -7 19 -15 37 -18 41 -4
4 -40 -15 -81 -42z"/>
<path d="M7311 3163 c-27 -96 -1 -150 94 -194 72 -33 126 -22 169 34 15 20 29
50 32 69 l6 33 -134 44 c-73 24 -138 46 -145 48 -7 3 -16 -11 -22 -34z"/>
<path d="M7265 2566 c-19 -49 -11 -77 26 -96 26 -14 54 -5 79 27 31 40 25 57
-29 86 -27 15 -51 27 -54 27 -3 0 -13 -20 -22 -44z"/>
<path d="M1001 2551 c-50 -20 -97 -68 -107 -107 -8 -31 9 -94 34 -124 l18 -22
125 71 c68 40 127 76 132 80 10 10 -30 68 -63 93 -37 27 -88 31 -139 9z"/>
<path d="M6941 2161 c-12 -16 -21 -33 -21 -39 0 -8 132 -62 153 -62 9 0 -95
128 -105 129 -4 1 -16 -12 -27 -28z"/>
<path d="M2484 1350 c-23 -9 -64 -56 -64 -73 0 -5 8 -16 18 -24 27 -22 215
-114 220 -108 10 9 -27 110 -53 144 -25 35 -72 71 -90 70 -5 0 -20 -4 -31 -9z"/>
<path d="M2929 1111 c-60 -60 -35 -88 121 -131 41 -12 81 -23 89 -26 41 -14
-40 128 -95 164 -46 30 -79 28 -115 -7z"/>
<path d="M2550 1096 c0 -12 -5 -37 -11 -55 -10 -27 -8 -35 7 -52 50 -55 94
-49 124 16 11 24 20 48 20 53 0 9 -108 62 -128 62 -7 0 -12 -11 -12 -24z"/>
<path d="M4152 940 c-28 -12 -56 -74 -48 -106 7 -27 12 -28 169 -17 110 7 117
14 62 62 -63 55 -136 79 -183 61z"/>
<path d="M3351 876 c-16 -20 -10 -56 11 -70 22 -14 26 -9 30 39 3 43 -18 59
-41 31z"/>
<path d="M2986 644 c-31 -30 -14 -54 39 -54 12 0 33 8 46 19 l23 18 -32 17
c-39 20 -56 20 -76 0z"/>
<path d="M3760 642 c-61 -30 -47 -92 19 -92 36 1 114 37 109 52 -5 15 -47 45
-73 52 -11 3 -36 -2 -55 -12z"/>
<path d="M5228 951 c-26 -9 -50 -19 -53 -23 -8 -8 33 -138 44 -138 4 0 28 7
54 16 54 18 56 25 24 105 l-22 56 -47 -16z"/>
<path d="M4740 685 c-19 -20 -22 -30 -14 -43 23 -36 90 -18 115 31 24 43 -63
53 -101 12z"/>
</g>
</svg>
